<svg width="19" height="20" viewBox="0 0 19 20" fill="none" xmlns="http://www.w3.org/2000/svg">
<path d="M4.24663 17.1219L4.24663 2.87194C4.24705 2.72767 4.28475 2.58625 4.35566 2.46291C4.42657 2.33956 4.528 2.23897 4.64904 2.17195C4.77008 2.10494 4.90615 2.07403 5.04259 2.08257C5.17903 2.0911 5.31068 2.13876 5.42338 2.2204L15.1734 9.3454C15.5776 9.64069 15.5776 10.3516 15.1734 10.6477L5.42338 17.7727C5.31092 17.8552 5.1792 17.9035 5.04253 17.9125C4.90586 17.9215 4.76947 17.8908 4.64817 17.8237C4.52687 17.7567 4.42531 17.6558 4.35452 17.5321C4.28373 17.4083 4.24641 17.2665 4.24663 17.1219Z" fill="#575757"/>
</svg>
